/* XPM */
static char *_e5209b127fb406af4d11cb9cb1c9246tZbRoPabTsVqznMB[] = {
/* columns rows colors chars-per-pixel */
"32 32 67 1 ",
"  c #5DB85B",
". c #5EB85C",
"X c #60B95E",
"o c #63BA61",
"O c #64BA62",
"+ c #67BB65",
"@ c #69BC67",
"# c #6ABB68",
"$ c #6ABC68",
"% c #6CBC6B",
"& c #6EBD6C",
"* c #71BD6F",
"= c #71BE70",
"- c #75BF73",
"; c #76BF74",
": c #77C076",
"> c #78C076",
", c #7AC178",
"< c #7DC27C",
"1 c #82C381",
"2 c #83C482",
"3 c #84C482",
"4 c #85C484",
"5 c #89C688",
"6 c #8CC78B",
"7 c #8FC88E",
"8 c #92C991",
"9 c #95CA94",
"0 c #98CB97",
"q c #98CC97",
"w c #99CD98",
"e c #9CCD9B",
"r c #9ECE9D",
"t c #A0CF9F",
"y c #A0CFA0",
"u c #A2D0A1",
"i c #A4D1A3",
"p c #A6D2A5",
"a c #AFD5AE",
"s c #B2D7B1",
"d c #B4D8B3",
"f c #B6D9B6",
"g c #BADBB9",
"h c #BCDCBB",
"j c #BFDDBE",
"k c #C2DFC1",
"l c #C6E1C5",
"z c #C9E2C8",
"x c #CCE3CB",
"c c #CFE5CF",
"v c #D2E6D2",
"b c #D4E8D3",
"n c #D6E9D6",
"m c #D8EAD8",
"M c #DCECDC",
"N c #E0EDDF",
"B c #E1EEE0",
"V c #E4F0E4",
"C c #EAF3E9",
"Z c #EBF4EB",
"A c #ECF4EB",
"S c #ECF4EC",
"D c #F0F7F0",
"F c #F2F8F2",
"G c #F4F9F4",
"H c #F8FBF8",
"J c #FEFFFE",
/* pixels */
"                                ",
"                                ",
"                                ",
"                                ",
"                                ",
"                                ",
"          -;                    ",
"         ;Zx                    ",
"       y5SMO o...XXXo.o.Xo      ",
"       mJMO  npegzulpvMgsb5     ",
"       ohO   jklfztziczuchf     ",
"             $ @ OOX+.+X+$      ",
"                                ",
"                                ",
"                                ",
"                                ",
"                                ",
"       cN4 4MAv&  4NNN,         ",
"      X8C8 Ss-cv  jc77O         ",
"        V8*c  <D  Vd>           ",
"        V8    fm -ZmGf          ",
"        V8   7G1 +. 2H&         ",
"        V8  <Fr      C7         ",
"        V8 &Za  #a  :G& 3<94=   ",
"        V8oBGvvl+VMlDg 5-pawq   ",
"        6%*00008 opf4  5 %51$   ",
"                                ",
"                                ",
"                                ",
"                                ",
"                                ",
"                                "
};
