/* XPM */
static char *_b6a5ee93059438babe2c3d8cb1d3bd8twNWmYHZf8ncDdfn[] = {
/* columns rows colors chars-per-pixel */
"32 32 64 1 ",
"  c #170300",
". c #1D0200",
"X c #210102",
"o c #240003",
"O c #290000",
"+ c #260100",
"@ c #2C0001",
"# c #300004",
"$ c #370003",
"% c #340201",
"& c #3B0100",
"* c #430101",
"= c #4B0302",
"- c #520501",
"; c #5B0501",
": c #4F0C00",
"> c #560B00",
", c #660703",
"< c #600B00",
"1 c #6C0A01",
"2 c #5F1600",
"3 c #760F00",
"4 c #811102",
"5 c #891500",
"6 c #771F00",
"7 c #941900",
"8 c #9F1E00",
"9 c #912700",
"0 c #9B2400",
"q c #A92700",
"w c #A62E00",
"e c #9F3500",
"r c #B53100",
"t c #B13900",
"y c #BE3D01",
"u c #C63C00",
"i c #BD4500",
"p c #CA4800",
"a c #D34E00",
"s c #DB4E00",
"d c #D05400",
"f c #E35C00",
"g c #DC6001",
"h c #EB6300",
"j c #E56900",
"k c #E26F00",
"l c #F57604",
"z c #F18006",
"x c #F68B0B",
"c c #F19111",
"v c #FB9F21",
"b c #F8A41D",
"n c #FAAC2A",
"m c #F9B531",
"M c #FBC439",
"N c #FEC74C",
"B c #FDCA57",
"V c #FBD04B",
"C c #FFD966",
"Z c #FFE275",
"A c #FFE382",
"S c #FFE68D",
"D c #FFF1B1",
"F c #FFF8D6",
/* pixels */
"%%%&&$%%%%%&&*****&&&%%#@OXX    ",
"%%&%&$$&&**=->;;;;--=*&&%@Oo.   ",
"%%%$$&&*=-;,111111,<;--*&%@OX.  ",
"@%%%$&*-;134445544431,;-=&%@OX. ",
"+O@#$*-<345778877755431<-=&#@+X.",
"XoO#&=<3578qqqq888877543,-*&@@OX",
"XoO%*>358qrrrqqq888887743,-*&#@O",
"XO@&=148qruurrq80888888743<-*&%@",
"oO%*;37qyppuyq7545508qq8741<-*&%",
"@%*-15wyasspr961<1358qqq0741;=*&",
"%&-140yafhfpw62>-><40rrrq074,-=&",
"&-,40tdjlljae6>:::>60yppyq053;=*",
"=>17qpjzcxlde2::=:>6taffaiw74,-*",
"=<48ygzvmnxge2::::29phlljdt051-*",
"-,4qpjcmBNvji6>::26ijzxxzgi051-*",
"-15qpjvMZCmzde6226tgzvnbxji051-&",
"-,5qpjcMZANvkie9eijxnNNmcji051-&",
"-,48ygxmVCNnxkgggzvmCCVmcgi051-&",
"=;37rajcmMMmbvccvmBAACMnzdt04,=$",
"*-158yajcbmmmmmNCSDDZVmcgiw93<=%",
"&=;37qydjzcnmMCADFDZVmckdt051;*$",
"$*-<370tigkcbmVZSACVnckdt053,-*&",
"@&*-,357widjzvmMMMmvzgiw9531;=*&",
"O#&*-<1490tigkxccczkdte943,;-=*&",
"oO#$*=;,350wtddgggdie9531<;-=*&&",
"X+O@%&*-<1470qryytw0531<--=***&%",
".XOO@#$&=>,3457887743<>=***&&&&%",
" .XOO@@%&*-;,133331,;-*&&&&&&%%%",
" .X+OOOO@%&*=->;;;-=*&%%%%%%%%%%",
"  .Xo+OOOO@#%&****&&%@@OO@@@@@@@",
"  ..XXooXoo+O@@###@@O+ooo++OOO+X",
"   ...XXXXXXXoo+++oXXX......X..."
};
