/* XPM */
static char *dd584fc629a148acb14dd77df0e71eeaC3PbxcVsGkOViin5[] = {
/* columns rows colors chars-per-pixel */
"32 32 21 1 ",
"  c black",
". c #205654",
"X c #496B6A",
"o c #4D7B79",
"O c #B73232",
"+ c #C01B1B",
"@ c #E71B1B",
"# c #F51B1B",
"$ c #FF1B1B",
"% c #1DE44A",
"& c #A0A933",
"* c #A0F533",
"= c #C5F611",
"- c #2C79C7",
"; c #54928F",
": c #419491",
"> c #648F8D",
", c #64B2AE",
"< c #36DFDA",
"1 c #6FC6C2",
"2 c #75D3CF",
/* pixels */
"                                ",
"              +@@+              ",
"             +@##@+             ",
"        <   +@@##@@+            ",
"    %      +@@####@@+           ",
"           +@##$$##@+        <  ",
"          +@@##$$##@@+          ",
"          +@###$$###@+ %        ",
"         +@@###$$###@@+         ",
"         +@##$$$$$$##@+         ",
"      % +@@##$$$$$$##@@+        ",
"        +@@##$$$$$$##@@+        ",
"         ;,,11222211,,;         ",
"         ;,,11222211,,;         ",
"         ;,,11222211,,;         ",
"         ;,,11222211,,;         ",
"    <    ;,,11....11,,; %       ",
"         ;,,1.----.1,,;         ",
"         ;,,1.----.1,,;         ",
"         ;,,1.----.1,,;         ",
"         ;,,1.----.1,,;         ",
"         ;X,11....11,X;         ",
"    %    oX,11222211,Xo         ",
"        >oX,11222211,Xo>        ",
"        >oX,11222211,Xo>        ",
"       :>oX,11222211,Xo>:       ",
"       :>oX,11222211,Xo>:  %    ",
"     < :>o ==*&O=*&&% o>:       ",
"       :>   =*=O==&O*  >:       ",
"       :    O&*O **O*   :       ",
"             &&   **            ",
"                   *            "
};
