/* XPM */
static char *_e56fce7eac341788c804b7235415711tUZdO3GAX6I9bl8I[] = {
/* columns rows colors chars-per-pixel */
"32 32 9 1 ",
"  c black",
". c #146663",
"X c #1E7774",
"o c #20827F",
"O c #1DE44A",
"+ c #219E99",
"@ c #339F9B",
"# c #32BCB7",
"$ c #36DFDA",
/* pixels */
"                                ",
"               .........        ",
"             ..ooooooooo..      ",
"        $   ..ooooooooooo.      ",
"    O      ..ooooo@@@ooooo.     ",
"           ooo....@ooooooo.. $  ",
"       ...oo.....@@o.....oo..   ",
"     ...oooo+...@@@..o@@+ooo... ",
"     .oooo+++++++++++o@@@+ooooo.",
"    .oo++oooo++++++++o+.++ooooo.",
"  ..oo+++o+o++++#.++oo+.++++ooo.",
"  .oo++++ooo+++++.ooo++.oo++oooo",
" ..oo+++ooooo+##++o#++@.oo+++o.o",
" .ooo++ooo+oo+##++oo+@@#o.++oooo",
" .o+++ooo+++++###oooo@##oo.+ooo.",
" .oo+++o+++++++##oooooX@@@@oo+o.",
" .ooooo+++++++#oo@@@oo#@@@@oooo.",
" .oo+++o++++oooo..@@@@###@.oooo ",
"  .oo++ooooo+++#@@@@@@@....ooo. ",
"   .oooo++++++##.ooX@#@..oooo.. ",
"    ...oooo++##@.o@@@Xo@.oooo.  ",
"      ...oo++#..ooo#oo.+.ooo.   ",
"    O  ..oo++..+ooooo..@@+oo.   ",
"       ..oo++@++.ooo..#+.+oo..  ",
"        .oo++@++oo...+++@+ooo.  ",
"        ..ooo.+oo++##+@+++ooo.  ",
"         .ooo.oo+++++.++ooooo.  ",
"     $   ..oo+oo+++++++ooooo..  ",
"          ...++++++ooooooo...   ",
"           ..o++++oo..o.        ",
"             .ooooo.            ",
"              .....             "
};
